<?xml version="1.0" encoding="utf-8"?><svg viewBox="0 0 502.66 502.66" xmlns="http://www.w3.org/2000/svg" xmlns:xlink="http://www.w3.org/1999/xlink"><style>:root>svg{display:none}:root>svg:target{display:block}</style><svg viewBox="0 0 30 23" id="credit-card" xmlns="http://www.w3.org/2000/svg"><path d="M25.982 23H4.018C1.803 23 0 21.205 0 19V4c0-2.206 1.803-4 4.02-4h21.96C28.197 0 30 1.794 30 4v15c0 2.205-1.803 4-4.018 4zM4.018 1.143A2.866 2.866 0 001.15 4v15a2.867 2.867 0 002.87 2.857h21.962A2.867 2.867 0 0028.85 19V4a2.867 2.867 0 00-2.87-2.857H4.019zM20.704 3.36a2.588 2.588 0 012.594 2.582 2.588 2.588 0 01-2.594 2.582 2.588 2.588 0 01-2.594-2.582 2.588 2.588 0 012.594-2.582zm3.616 0a2.588 2.588 0 012.595 2.582 2.588 2.588 0 01-2.595 2.582 2.588 2.588 0 01-2.594-2.582A2.588 2.588 0 0124.32 3.36zM3.086 16.334h4.782v1.714H3.086v-1.714zm6.349 0h4.782v1.714H9.435v-1.714zm6.347 0h4.784v1.714h-4.784v-1.714zm6.349 0h4.783v1.714H22.13v-1.714zM3.085 3.36h9.04v1.715h-9.04V3.36zm0 3.402H7.87v1.714H3.086V6.762z"/></svg><svg viewBox="0 0 502.664 502.664" id="icon" xmlns="http://www.w3.org/2000/svg"><path d="M153.821 358.226L0 274.337v-46.463l153.821-83.414v54.574L46.636 250.523l107.185 53.431v54.272zm26.273 29.358L282.103 115.08h32.227L212.084 387.584h-31.99zm168.749-29.358v-54.272l107.164-52.999-107.164-52.59v-53.927l153.821 83.522v46.183l-153.821 84.083z"/></svg></svg>